<?xml version="1.0" encoding="utf-8"?>
<!-- Generator: Adobe Illustrator 17.0.0, SVG Export Plug-In . SVG Version: 6.00 Build 0)  -->
<!DOCTYPE svg PUBLIC "-//W3C//DTD SVG 1.1//EN" "http://www.w3.org/Graphics/SVG/1.1/DTD/svg11.dtd">
<svg version="1.1" id="Layer_1" xmlns="http://www.w3.org/2000/svg" xmlns:xlink="http://www.w3.org/1999/xlink" x="0px" y="0px"
	 width="960px" height="560px" viewBox="0 0 960 560" enable-background="new 0 0 960 560" xml:space="preserve">
<g>
	<path fill="#CE1126" d="M561.480896,264.1057739h-32.3120728v-89.2507477h-32.3095703v89.2507477h-32.3120728v-89.2507477
		h-32.3120728v89.2507477h-32.3120728v-89.2507477h-6.2883301v-31.7853241H561.480896V264.1057739z"/>
</g>
<g>
	<path fill="#CE1126" d="M676.2311401,264.1057739h-96.9362183V143.0697021h32.3120728v89.2507477h32.3120728v-89.2507477
		h32.3120728V264.1057739z"/>
</g>
<g>
	<path fill="#CE1126" d="M790.8057861,264.1057739h-32.3120728v-89.2507477h-32.3120728v89.2507477h-32.3120728v-89.2507477
		h-6.4614258v-31.960907h103.397644V264.1057739z"/>
</g>
<g>
	<path fill="#CE1126" d="M490.2268066,401.7338257h-96.9362183V357.196228h32.3120728v12.7522583h32.3120728l-64.6241455-38.4273376
		v-50.9989929h96.9362183v44.7131653h-32.3120728v-12.7522583h-32.3120728l64.6241455,38.25177V401.7338257z"/>
</g>
<g>
	<path fill="#CE1126" d="M604.8014526,401.7338257h-96.9362183V280.6977539h32.3120728v89.2507324h32.3120728v-89.2507324
		h32.3120728V401.7338257z"/>
</g>
<g>
	<path fill="#CE1126" d="M789.1378784,401.7338257h-32.3120728v-89.2507629h-32.3120728v89.2507629h-32.3120728v-89.2507629
		h-32.3120728v89.2507629h-32.3120728v-89.2507629h-6.2858276v-31.7853088h167.8461914V401.7338257z"/>
</g>
<path fill="#CE1126" d="M355.1196899,413.6976013c-4.8143616-4.8985901-9.7931824-9.9645081-14.8639832-15.1240234
	c-2.3731384,1.3258362-4.5153809,2.5735474-6.7026672,3.7365112c-15.819397,8.4112549-32.6383362,12.6939697-50.596344,11.7737732
	c-18.0972595-0.9272766-34.3748016-7.0649719-48.9171448-17.835907c-4.2808838-3.1706848-8.5134888-6.4065247-12.9678955-9.7630005
	c-10.0608368,8.6623535-20.1352081,17.3363037-30.3644257,26.1436157
	c-5.0664215-6.0024414-9.9462891-11.783844-15.1520691-17.9513855
	c14.8330841-12.7773438,29.5098877-25.4200439,43.7968445-37.7269287
	c6.2618713,4.7191772,11.7316132,9.2864685,17.633255,13.2028198
	c15.5969391,10.3501892,32.9627075,14.9981079,51.6041565,14.9924316
	c10.4513855-0.0032043,19.8192444-4.0173035,28.9855652-7.945343
	c-19.4793701-19.5121765-38.901001-38.9665222-58.4918823-58.5903931
	c-5.4456482,5.316925-11.152298,10.8886414-16.3572388,15.9705505
	c-8.3991089-7.9951172-16.6350708-15.8348999-25.0082397-23.8053284c2.3810272-2.1840515,4.5243378-4.0180054,6.5186157-6.0018005
	c9.6274109-9.5768433,19.1613312-19.2481995,28.833725-28.7791748c7.2541656-7.1480713,7.325058-7.0799255,17.4808807-7.7604675
	c6.6194153-0.443573,12.9946899-1.6541443,18.3970032-5.8921509c4.4068604,4.6025085,8.7407227,9.1287231,13.2052917,13.7914429
	c-6.7087708,6.4273987-13.8573608,13.2762146-20.8905945,20.0144653
	c19.6594238,19.7267151,39.0857544,39.2195129,58.6781006,58.8789368
	c3.2960815-6.0195923,5.5025635-12.2423706,6.5737305-18.7897339c4.5118408-27.5785522-3.8547363-51.2964172-21.7813416-72.1557617
	c-8.5057678-9.8973083-19.4455872-16.4132843-30.620575-22.6556244c-0.6343384-0.3543549-1.2650146-0.7167206-1.8795166-1.1037598
	c-0.0978088-0.0616302-0.1006165-0.2740936-0.1997375-0.5767365c7.7637329,0.1740417,15.3284912,1.2583618,22.6116333,3.7286682
	c29.0273438,9.8455658,49.3126831,28.765686,58.7171021,58.2324829c7.1558228,22.4212952,4.4438477,44.218689-6.1404419,65.114624
	c-1.4230652,2.8094788-2.8764954,5.6143188-4.5157776,8.2992554c-0.8972778,1.469696-0.7244568,2.3576355,0.4914856,3.5098572
	c4.6886902,4.4431152,9.28479,8.9839172,13.7909851,13.3672791
	C369.5332947,399.3945313,362.4484253,406.4250793,355.1196899,413.6976013z"/>
<g>
	<polygon fill="#CE1126" points="204.0725098,356.5518799 204.0725098,311.9707031 202.670166,310.6358032 204.0725098,309.3494873 
		204.0725098,276.1479492 170.7737427,276.1479492 170.7737427,385.2356567 	"/>
	<path fill="#CE1126" d="M204.0725098,370.1121216c-9.402771,8.0996094-18.9204102,16.2982178-28.517334,24.5650635
		c2.0267334,2.4011841,3.9980469,4.7366333,5.9562378,7.0566406h21.8494873
		c0.2369995-0.2040405,0.4746704-0.4086914,0.7116089-0.6126709V370.1121216z"/>
</g>
<g>
	<path fill="#CE1126" d="M267.7099609,258.1357422v-38.7431641h-32.3120728v12.7522583h-32.3120728v-57.2897949h32.3120728
		v12.7522583h32.3120728V142.894104h-96.9362183v121.2116699h79.9829102
		C255.8425293,259.7845459,259.303894,258.7816772,267.7099609,258.1357422z"/>
</g>
<g>
	<g>
		<path fill="#CE1126" d="M292.2634888,229.4731445c9.432251,0.2114868,17.8327026,1.6083984,25.6814575,4.2705078
			c19.3276367,6.555603,34.8397827,16.7208252,46.4301147,30.3621216h17.9095459V143.0697021h-96.9362183v86.2484131
			L292.2634888,229.4731445z M317.6604614,174.8550415h32.3120728v57.4653931h-32.3120728V174.8550415z"/>
	</g>
	<g>
		<path fill="#CE1126" d="M286.7542114,249.0126953c-0.4443359-0.2800903-0.9244995-0.6380005-1.4058228-1.0692139v4.1634521
			l2.842041-2.2295532C287.744873,249.6196899,287.2555542,249.3284912,286.7542114,249.0126953z"/>
	</g>
</g>
<path display="none" fill="#FFFFFF" d="M295.936554,296.3169861l6.3130188-6.0482483l7.0111389-6.7171631l7.4165955-7.1055603
	l-7.1033936-7.4186401l-13.2051392-13.7913513l-1.4813843-1.5471649
	c8.312439,4.8604584,16.0522156,10.1049347,22.0536804,17.0882721
	c16.8861389,19.6486511,23.243103,40.5180359,19.4340515,63.8005981c-0.1071472,0.6548767-0.2278137,1.3052673-0.3623962,1.9526062
	L295.936554,296.3169861L295.936554,296.3169861z"/>
</svg>
